<svg width="11" height="14" viewBox="0 0 11 14" fill="none" xmlns="http://www.w3.org/2000/svg">
<path d="M1.03331 1.83853L1.03125 3.32434V10.6757C1.03125 11.2789 1.26666 11.8575 1.68568 12.284C2.10471 12.7106 2.67303 12.9502 3.26562 12.9502H9.18912C9.08238 13.2572 8.88478 13.523 8.62353 13.711C8.36227 13.899 8.05019 14 7.73025 14H3.26562C2.39953 14 1.5689 13.6498 0.95648 13.0263C0.344056 12.4029 0 11.5573 0 10.6757V3.32434C0 2.63847 0.431062 2.05409 1.03331 1.83853ZM9.45312 0C9.65626 0 9.85741 0.0407305 10.0451 0.119866C10.2328 0.199001 10.4033 0.314992 10.5469 0.461215C10.6906 0.607438 10.8045 0.78103 10.8823 0.972079C10.96 1.16313 11 1.36789 11 1.57469V10.6729C11 10.8797 10.96 11.0844 10.8823 11.2755C10.8045 11.4665 10.6906 11.6401 10.5469 11.7863C10.4033 11.9326 10.2328 12.0486 10.0451 12.1277C9.85741 12.2068 9.65626 12.2476 9.45312 12.2476H3.26562C2.85537 12.2476 2.46191 12.0816 2.17182 11.7863C1.88172 11.491 1.71875 11.0905 1.71875 10.6729V1.57469C1.71875 1.15705 1.88172 0.756525 2.17182 0.461215C2.46191 0.165904 2.85537 0 3.26562 0H9.45312ZM9.45312 1.04979H3.26562C3.12887 1.04979 2.99772 1.10509 2.90102 1.20353C2.80432 1.30197 2.75 1.43547 2.75 1.57469V10.6729C2.75 10.9626 2.981 11.1978 3.26562 11.1978H9.45312C9.58988 11.1978 9.72103 11.1425 9.81773 11.044C9.91443 10.9456 9.96875 10.8121 9.96875 10.6729V1.57469C9.96875 1.43547 9.91443 1.30197 9.81773 1.20353C9.72103 1.10509 9.58988 1.04979 9.45312 1.04979Z" fill="white"/>
</svg>
