<svg width="19" height="20" viewBox="0 0 19 20" fill="none" xmlns="http://www.w3.org/2000/svg">
<path d="M18.9284 14.8566L17.7586 12.4793C17.6459 12.2501 17.4726 12.0574 17.2582 11.9226C17.0438 11.7879 16.7967 11.7166 16.5446 11.7166H16.2271C15.9921 10.5972 15.5747 9.52564 14.9921 8.54621C14.2938 7.20138 13.5712 5.81241 13.5712 4.13793C13.5712 3.04048 13.1422 1.98798 12.3787 1.21197C11.6152 0.435959 10.5796 0 9.49982 0C8.42003 0 7.38447 0.435959 6.62094 1.21197C5.85741 1.98798 5.42847 3.04048 5.42847 4.13793C5.33208 5.66377 4.85347 7.13922 4.0381 8.42414C3.42851 9.43802 2.999 10.5529 2.76919 11.7179H2.45502C2.20294 11.7179 1.95584 11.7893 1.74143 11.924C1.52701 12.0588 1.35376 12.2515 1.24108 12.4807L0.0712399 14.8579C0.014844 14.9729 -0.00881307 15.1017 0.00293666 15.2296C0.0146864 15.3576 0.0613756 15.4796 0.137739 15.5821L2.87165 19.2552C3.18256 19.6344 3.6166 19.8881 4.09542 19.9705C4.57425 20.053 5.0663 19.9588 5.48275 19.7048L6.75437 18.9297C7.64593 19.194 8.57117 19.3223 9.49982 19.3103C10.4292 19.3225 11.3552 19.1939 12.2473 18.929L13.5169 19.7034C13.8318 19.8969 14.1926 19.9994 14.5605 20C14.8648 19.9985 15.165 19.9285 15.4395 19.795C15.7141 19.6616 15.9561 19.468 16.1483 19.2283L18.8626 15.5814C18.9389 15.4788 18.9855 15.3566 18.9971 15.2285C19.0088 15.1004 18.985 14.9716 18.9284 14.8566ZM13.7924 9.19035C14.2553 9.98023 14.6114 10.83 14.8509 11.7166H13.3934C13.2229 11.0905 13.0004 10.4803 12.7284 9.89241C12.4734 9.35231 12.2735 8.78706 12.132 8.20552C12.3903 7.90117 12.6183 7.57151 12.8125 7.22138L12.839 7.17172C13.1216 7.86119 13.4398 8.53501 13.7924 9.19035V9.19035ZM6.78558 13.1034C6.83793 12.1751 7.08625 11.2691 7.51368 10.4469C7.68739 10.0455 7.86381 9.63655 8.00631 9.20621C8.4511 9.49918 8.9698 9.65507 9.49982 9.65507C10.0298 9.65507 10.5485 9.49918 10.9933 9.20621C11.1358 9.63655 11.3123 10.0455 11.486 10.4476C11.9133 11.2695 12.1616 12.1753 12.2141 13.1034C12.2141 13.9917 11.9325 15.1724 9.49982 15.1724C7.06719 15.1724 6.78558 13.9917 6.78558 13.1034ZM11.203 7.18966C11.0103 7.48236 10.759 7.73042 10.4655 7.9176C10.172 8.10478 9.84295 8.22687 9.49982 8.27586C9.15664 8.22678 8.82752 8.1046 8.53401 7.91729C8.24051 7.72999 7.98923 7.4818 7.79664 7.18897C8.89964 6.79879 10.1 6.79879 11.203 7.18897V7.18966ZM6.78558 4.13793C6.78558 3.4063 7.07155 2.70463 7.58057 2.18729C8.08958 1.66995 8.77996 1.37931 9.49982 1.37931C10.2197 1.37931 10.9101 1.66995 11.4191 2.18729C11.9281 2.70463 12.2141 3.4063 12.2141 4.13793C12.2169 4.86583 12.3237 5.58945 12.5309 6.28621C12.2143 6.10793 11.8808 5.96237 11.5355 5.85172V4.13793H10.1784V5.55448C9.72734 5.50464 9.27231 5.50464 8.82126 5.55448V4.13793H7.46414V5.85172C7.116 5.96309 6.77995 6.11029 6.46123 6.29103C6.67345 5.59357 6.78276 4.86798 6.78558 4.13793V4.13793ZM5.23508 9.07586C5.57377 8.45337 5.88044 7.81343 6.15385 7.15862L6.18709 7.22069C6.38131 7.57106 6.6093 7.90096 6.86769 8.20552C6.72608 8.78682 6.52621 9.35184 6.27124 9.89172C5.99915 10.48 5.77669 11.0907 5.60625 11.7172H4.14192C4.37534 10.7866 4.74352 9.89646 5.2344 9.07586H5.23508ZM6.1647 17.6807L4.78451 18.5221C4.65095 18.6059 4.49264 18.6395 4.33724 18.6168C4.18183 18.5941 4.03921 18.5166 3.93428 18.3979L1.47382 15.0917L2.45502 13.0972H4.96976L6.43952 16.8172C6.50366 16.9707 6.51118 17.1425 6.46069 17.3011C6.41021 17.4597 6.30511 17.5945 6.1647 17.6807V17.6807ZM7.73625 17.7614C7.90015 17.2881 7.88662 16.77 7.69825 16.3062C8.28342 16.4786 8.89063 16.5614 9.49982 16.5517C10.1092 16.5615 10.7167 16.4788 11.3021 16.3062C11.1162 16.7706 11.1031 17.2879 11.2654 17.7614C10.0998 17.9874 8.90258 17.9874 7.73692 17.7614H7.73625ZM15.085 18.371C14.9817 18.4978 14.8371 18.5826 14.6774 18.61C14.5178 18.6375 14.3537 18.6058 14.2151 18.5207L12.8349 17.6793C12.6929 17.5911 12.5873 17.4534 12.5378 17.2918C12.4884 17.1302 12.4985 16.9559 12.5662 16.8014L14.0299 13.0959H16.5439L17.5251 15.0903L15.085 18.371Z" fill="white"/>
</svg>
