<svg width="157" height="43" viewBox="0 0 157 43" fill="none" xmlns="http://www.w3.org/2000/svg">
<g clip-path="url(#clip0_119_4)">
<path opacity="0.62" d="M26.277 32.9487C30.6086 28.6205 30.2209 21.2259 25.4197 16.4213C20.6158 11.6181 13.2252 11.2317 8.89227 15.562C4.56338 19.8868 -2.21315 34.4484 2.59008 39.2523C7.39601 44.0569 21.9528 37.277 26.2804 32.9514" fill="#FBED21"/>
<path opacity="0.62" d="M27.5388 28.5278C31.136 24.9333 30.8149 18.791 26.8266 14.8001C22.8357 10.8105 16.6948 10.49 13.0989 14.0866C9.50569 17.6784 3.87471 29.7742 7.8643 33.7591C11.8559 37.7507 23.9497 32.119 27.5368 28.5258" fill="#FBED21"/>
<path d="M18.6909 24.2144C22.7833 28.3068 26.095 32.6242 28.464 36.722C28.7946 34.6573 30.1806 31.4068 34.3637 24.588C42.6721 11.043 43.5281 1.36258 42.6197 0.458234C42.5923 0.429014 42.5638 0.400777 42.5344 0.373578C42.5065 0.344126 42.4776 0.315665 42.4477 0.28825C41.5447 -0.623485 31.8684 0.238531 18.318 8.54492C11.4991 12.728 8.24526 14.1114 6.18394 14.4433C10.2804 16.809 14.6005 20.124 18.6916 24.2164" fill="#D1D2D3"/>
<path d="M39.9094 0.0550537C36.0602 0.380913 28.2376 2.46305 18.3153 8.54554C11.4964 12.7286 8.24256 14.112 6.18124 14.4439C10.2777 16.8096 14.5978 20.1253 18.6889 24.217C18.8609 24.389 19.0194 24.5637 19.1928 24.735C17.933 13.2393 30.5918 5.61415 39.9087 0.0550537" fill="#86A7AC"/>
<path d="M22.5595 35.3594C24.6504 37.4517 26.3456 39.6568 27.5556 41.753C27.7229 40.6968 28.4311 39.0346 30.5683 35.5489C34.8146 28.6252 35.256 23.6789 34.7883 23.2166C34.7749 23.2025 34.7574 23.1884 34.7447 23.1743C34.7319 23.1602 34.7165 23.1434 34.701 23.1306C34.2394 22.6657 29.2924 23.1058 22.3694 27.3507C18.8844 29.4886 17.2208 30.1961 16.164 30.3647C18.2609 31.5721 20.4687 33.2686 22.5595 35.3594" fill="#DE374B"/>
<path d="M28.0165 29.6229C26.234 31.8253 24.8755 34.6317 24.5174 37.5033C25.718 38.9244 26.7521 40.3622 27.5549 41.7516C27.7222 40.6954 28.4304 39.0332 30.5676 35.5475C34.0251 29.9105 34.9577 25.5849 34.9348 23.9227C32.6404 25.8389 29.9314 27.2519 28.0165 29.6229Z" fill="#C5344D"/>
<path d="M6.39625 19.1216C8.48713 21.2138 10.1816 23.4196 11.3916 25.5152C11.5589 24.459 12.2664 22.7968 14.4063 19.3111C18.6512 12.3874 19.09 7.44105 18.625 6.97813C18.6116 6.96335 18.5955 6.94991 18.5807 6.9358C18.5646 6.92102 18.5525 6.9049 18.537 6.89213C18.0761 6.42652 13.1284 6.86727 6.20544 11.1122C2.72109 13.2501 1.05753 13.9576 0 14.1262C2.09692 15.3349 4.30538 17.0314 6.39625 19.1216" fill="#DE374B"/>
<path d="M8.62956 14.3997C12.3887 12.5997 16.3165 10.5659 18.6526 7.02718C18.6418 7.0124 18.6351 6.98888 18.6351 6.98888C18.6116 6.96402 18.5955 6.95059 18.5807 6.9358C18.5646 6.92102 18.5525 6.9049 18.537 6.89213C18.0761 6.42652 13.1284 6.86727 6.20544 11.1122C2.72109 13.2501 1.05753 13.9576 0 14.1262C1.41363 14.9412 2.87495 15.9927 4.31814 17.2215C5.62266 16.0924 7.07273 15.1433 8.62956 14.3997" fill="#C5344D"/>
<path d="M35.6295 7.43098C36.7878 8.42939 37.7379 9.5017 38.4373 10.5337C38.485 9.98612 38.7867 9.10328 39.7575 7.23076C41.6851 3.5126 41.7248 0.950745 41.4681 0.731713C41.4622 0.723067 41.4541 0.71612 41.4446 0.711557C41.4374 0.703489 41.4296 0.69607 41.4211 0.689385C41.1658 0.467667 38.6395 0.877511 35.2331 3.31776C33.5225 4.54864 32.6934 4.97259 32.1573 5.10024C33.2773 5.64379 34.4779 6.43392 35.6295 7.43098" fill="#243438"/>
</g>
<path d="M64.3985 7.45643C67.4217 7.45643 70.0637 8.07884 72.3243 9.32365C74.6122 10.5408 76.3689 12.2559 77.5946 14.4689C78.8202 16.6819 79.433 19.213 79.433 22.0622C79.433 24.8838 78.8066 27.4011 77.5537 29.6141C76.3281 31.8271 74.5713 33.5698 72.2835 34.8423C70.0228 36.0871 67.3945 36.7095 64.3985 36.7095H53V7.45643H64.3985ZM63.7857 29.5311C66.128 29.5311 67.9665 28.8811 69.3011 27.5809C70.6356 26.2808 71.3029 24.4412 71.3029 22.0622C71.3029 19.6556 70.6356 17.8022 69.3011 16.5021C67.9665 15.1743 66.128 14.5104 63.7857 14.5104H61.0075V29.5311H63.7857Z" fill="black"/>
<path d="M93.91 37C90.5599 37 87.809 36.1978 85.6573 34.5934C83.5057 32.9613 82.3481 30.6376 82.1847 27.6224H90.7233C90.805 28.6459 91.1046 29.3928 91.6221 29.8631C92.1396 30.3333 92.8069 30.5685 93.624 30.5685C94.3594 30.5685 94.9586 30.3887 95.4216 30.029C95.9119 29.6418 96.157 29.1162 96.157 28.4523C96.157 27.5947 95.7621 26.9308 94.9722 26.4606C94.1824 25.9903 92.9023 25.4647 91.1319 24.8838C89.2526 24.2476 87.7273 23.639 86.5561 23.0581C85.4122 22.4495 84.4045 21.5781 83.5329 20.444C82.6886 19.2822 82.2664 17.7745 82.2664 15.9212C82.2664 14.0401 82.7294 12.4357 83.6555 11.1079C84.5815 9.75242 85.8616 8.72891 87.4958 8.03734C89.13 7.34578 90.9821 7 93.0521 7C96.4021 7 99.0713 7.80221 101.06 9.40664C103.075 10.9834 104.151 13.2102 104.287 16.0871H95.585C95.5578 15.2019 95.2854 14.538 94.768 14.0954C94.2777 13.6528 93.6376 13.4315 92.8478 13.4315C92.2486 13.4315 91.7583 13.6113 91.377 13.971C90.9957 14.3306 90.805 14.8423 90.805 15.5062C90.805 16.0595 91.0093 16.5436 91.4179 16.9585C91.8536 17.3458 92.3848 17.6916 93.0112 17.9958C93.6376 18.2725 94.5637 18.6321 95.7893 19.0747C97.6142 19.7109 99.1122 20.3472 100.283 20.9834C101.482 21.592 102.503 22.4633 103.347 23.5975C104.219 24.704 104.655 26.1148 104.655 27.8299C104.655 29.5726 104.219 31.1355 103.347 32.5187C102.503 33.9018 101.264 34.9945 99.6297 35.7967C98.0227 36.5989 96.1162 37 93.91 37Z" fill="black"/>
<path d="M122.963 36.7095L117.243 25.9212H116.385V36.7095H108.377V7.45643H121.002C123.317 7.45643 125.278 7.87137 126.885 8.70124C128.492 9.50346 129.704 10.6238 130.521 12.0622C131.338 13.473 131.746 15.0636 131.746 16.834C131.746 18.8257 131.202 20.5823 130.112 22.1037C129.05 23.5975 127.484 24.6625 125.414 25.2988L131.91 36.7095H122.963ZM116.385 20.361H120.348C121.437 20.361 122.254 20.0982 122.799 19.5726C123.344 19.047 123.616 18.2863 123.616 17.2905C123.616 16.3499 123.33 15.6169 122.758 15.0913C122.214 14.538 121.41 14.2614 120.348 14.2614H116.385V20.361Z" fill="black"/>
<path d="M146.255 37C142.905 37 140.154 36.1978 138.003 34.5934C135.851 32.9613 134.693 30.6376 134.53 27.6224H143.069C143.15 28.6459 143.45 29.3928 143.967 29.8631C144.485 30.3333 145.152 30.5685 145.969 30.5685C146.705 30.5685 147.304 30.3887 147.767 30.029C148.257 29.6418 148.502 29.1162 148.502 28.4523C148.502 27.5947 148.107 26.9308 147.317 26.4606C146.528 25.9903 145.247 25.4647 143.477 24.8838C141.598 24.2476 140.073 23.639 138.901 23.0581C137.757 22.4495 136.75 21.5781 135.878 20.444C135.034 19.2822 134.612 17.7745 134.612 15.9212C134.612 14.0401 135.075 12.4357 136.001 11.1079C136.927 9.75242 138.207 8.72891 139.841 8.03734C141.475 7.34578 143.327 7 145.397 7C148.747 7 151.417 7.80221 153.405 9.40664C155.42 10.9834 156.496 13.2102 156.632 16.0871H147.93C147.903 15.2019 147.631 14.538 147.113 14.0954C146.623 13.6528 145.983 13.4315 145.193 13.4315C144.594 13.4315 144.104 13.6113 143.722 13.971C143.341 14.3306 143.15 14.8423 143.15 15.5062C143.15 16.0595 143.355 16.5436 143.763 16.9585C144.199 17.3458 144.73 17.6916 145.356 17.9958C145.983 18.2725 146.909 18.6321 148.135 19.0747C149.959 19.7109 151.457 20.3472 152.629 20.9834C153.827 21.592 154.848 22.4633 155.693 23.5975C156.564 24.704 157 26.1148 157 27.8299C157 29.5726 156.564 31.1355 155.693 32.5187C154.848 33.9018 153.609 34.9945 151.975 35.7967C150.368 36.5989 148.461 37 146.255 37Z" fill="black"/>
<defs>
<clipPath id="clip0_119_4">
<rect width="43" height="43" fill="white"/>
</clipPath>
</defs>
</svg>
