<svg width="24" height="22" viewBox="0 0 24 22" fill="none" xmlns="http://www.w3.org/2000/svg">
<path d="M21.5784 17.7834L19.3757 17.7851L21.3463 20.1059L2.65633 20.1186L4.62913 17.7949L2.42401 17.7968L0.199693 20.4162C0.0958552 20.5384 0.0291817 20.6878 0.00755216 20.8467C-0.0140773 21.0057 0.0102414 21.1674 0.0776342 21.313C0.145027 21.4585 0.252677 21.5817 0.38786 21.668C0.523043 21.7543 0.680108 21.8001 0.840493 21.8L23.1605 21.7847C23.3208 21.7846 23.4777 21.7387 23.6128 21.6523C23.7478 21.5659 23.8553 21.4427 23.9226 21.2972C23.9899 21.1517 24.0141 20.99 23.9924 20.8311C23.9708 20.6723 23.9041 20.523 23.8003 20.4008L21.5784 17.7834ZM9.92161 0.200012V5.16921H5.91289L12 11.2818L18.0871 5.16921H14.0784V0.200012H9.92161ZM17.3405 7.95777C16.7844 8.51649 16.2288 9.07569 15.6723 9.63417H16.8723L21.3459 14.9039L2.65633 14.9163L7.14097 9.63393H8.32801C7.77193 9.07521 7.21513 8.51793 6.65881 7.95921C6.44597 7.98295 6.25023 8.08709 6.11161 8.25033L0.199933 15.2142C0.0961696 15.3364 0.0295596 15.4858 0.0079711 15.6447C-0.0136174 15.8036 0.0107176 15.9653 0.0781015 16.1108C0.145485 16.2563 0.253103 16.3795 0.388241 16.4657C0.523379 16.552 0.680393 16.5979 0.840733 16.5978L23.1607 16.5824C23.321 16.5823 23.478 16.5364 23.613 16.45C23.7481 16.3637 23.8556 16.2404 23.9228 16.0949C23.9901 15.9494 24.0143 15.7877 23.9927 15.6289C23.971 15.4701 23.9044 15.3207 23.8006 15.1986L17.9016 8.25033C17.7599 8.08339 17.5585 7.97842 17.3405 7.95777V7.95777Z" fill="white"/>
</svg>
